<?xml version="1.0" encoding="UTF-8"?>
<svg xmlns="http://www.w3.org/2000/svg" xmlns:xlink="http://www.w3.org/1999/xlink" width="39pt" height="39pt" viewBox="0 0 39 39" version="1.1">
<g id="surface1">
<path style=" stroke:none;fill-rule:nonzero;fill:rgb(0%,0%,40%);fill-opacity:1;" d="M 19.5 0 C 12.769531 0 7.3125 5.457031 7.3125 12.1875 C 7.3125 14.074219 7.742188 15.859375 8.507812 17.453125 C 8.550781 17.542969 19.5 39 19.5 39 L 30.363281 17.71875 C 31.210938 16.058594 31.6875 14.179688 31.6875 12.1875 C 31.6875 5.457031 26.230469 0 19.5 0 Z M 19.5 19.5 C 15.460938 19.5 12.1875 16.226562 12.1875 12.1875 C 12.1875 8.148438 15.460938 4.875 19.5 4.875 C 23.539062 4.875 26.8125 8.148438 26.8125 12.1875 C 26.8125 16.226562 23.539062 19.5 19.5 19.5 Z M 19.5 19.5 "/>
</g>
</svg>
